<svg width="647" height="635" viewBox="0 0 647 635" fill="none" xmlns="http://www.w3.org/2000/svg">
<path d="M203.766 130.608C203.663 130.447 203.709 130.232 203.871 130.131C237.765 108.454 277.314 97.2801 317.545 98.0206C357.892 98.7626 397.113 111.451 430.248 134.483C463.382 157.515 488.944 189.855 503.697 227.415C518.453 264.975 521.739 306.065 513.14 345.491C504.541 384.918 484.444 420.91 455.391 448.916C426.337 476.92 389.631 495.68 349.915 502.825C310.199 509.968 269.257 505.175 232.265 489.05C195.379 472.971 164.074 446.345 142.282 412.523C142.179 412.364 142.226 412.149 142.387 412.046L240.112 349.315C240.272 349.212 240.487 349.259 240.59 349.419C249.9 363.797 263.239 375.117 278.945 381.963C294.758 388.857 312.259 390.906 329.235 387.852C346.212 384.798 361.901 376.778 374.32 364.808C386.739 352.838 395.33 337.453 399.005 320.6C402.68 303.748 401.276 286.182 394.969 270.129C388.662 254.074 377.736 240.249 363.572 230.405C349.409 220.559 332.644 215.136 315.398 214.82C298.267 214.503 281.426 219.242 266.976 228.438C266.814 228.54 266.6 228.494 266.497 228.332L203.766 130.608Z" fill="white"/>
<mask id="mask0_1492_8429" style="mask-type:luminance" maskUnits="userSpaceOnUse" x="68" y="69" width="491" height="479">
<path d="M391.392 74.1917C391.454 74.01 391.651 73.9143 391.83 73.976C436.818 89.371 476.25 117.729 505.16 155.486C534.141 193.334 551.247 238.925 554.316 286.497C557.385 334.066 546.279 381.477 522.401 422.736C498.526 463.995 462.95 497.245 420.176 518.285C377.4 539.324 329.348 547.208 282.093 540.937C234.838 534.667 190.504 514.524 154.697 483.057C118.89 451.591 93.2176 410.212 80.9268 364.154C68.6662 318.209 70.2719 269.665 85.5371 224.633C85.5983 224.452 85.7946 224.355 85.976 224.418L201.428 263.74C201.609 263.801 201.705 263.998 201.644 264.179C194.201 286.247 193.431 310.023 199.437 332.53C205.473 355.148 218.08 375.469 235.664 390.922C253.249 406.376 275.021 416.267 298.228 419.347C321.434 422.426 345.033 418.555 366.039 408.222C387.045 397.89 404.515 381.56 416.241 361.299C427.967 341.037 433.421 317.753 431.914 294.393C430.407 271.032 422.007 248.641 407.774 230.054C393.612 211.56 374.309 197.657 352.285 190.084C352.105 190.02 352.008 189.825 352.071 189.644L391.392 74.1917Z" stroke="white" stroke-opacity="0.8" stroke-width="8"/>
</mask>
<g mask="url(#mask0_1492_8429)">
<path d="M391.391 74.1917C391.453 74.0101 391.65 73.9143 391.829 73.976C436.817 89.371 476.249 117.729 505.159 155.486C534.14 193.334 551.246 238.925 554.315 286.497C557.384 334.066 546.278 381.477 522.4 422.736C498.525 463.995 462.949 497.245 420.175 518.285C377.4 539.324 329.347 547.208 282.092 540.937C234.837 534.667 190.503 514.524 154.696 483.057C118.889 451.591 93.2166 410.212 80.9259 364.154C68.6653 318.209 70.2709 269.665 85.5361 224.633C85.5974 224.452 85.7937 224.355 85.975 224.418L201.427 263.74C201.608 263.801 201.704 263.998 201.643 264.179C194.2 286.247 193.43 310.023 199.436 332.53C205.472 355.148 218.079 375.469 235.663 390.922C253.248 406.376 275.02 416.267 298.227 419.347C321.433 422.426 345.032 418.555 366.038 408.222C387.044 397.89 404.514 381.56 416.24 361.299C427.966 341.037 433.42 317.753 431.913 294.393C430.406 271.032 422.006 248.641 407.773 230.054C393.611 211.56 374.308 197.657 352.284 190.084C352.104 190.02 352.007 189.825 352.07 189.644L391.391 74.1917Z" stroke="white" stroke-opacity="0.7" stroke-width="8"/>
</g>
<path d="M217.4 243.959C185.545 299.133 204.449 369.683 259.623 401.538C314.796 433.392 385.347 414.489 417.201 359.315C449.056 304.141 430.152 233.591 374.978 201.736C319.804 169.882 249.254 188.786 217.4 243.959Z" fill="url(#paint0_linear_1492_8429)"/>
<path d="M223.34 219.724C222.525 219.724 221.815 219.421 221.21 218.815C220.605 218.209 220.302 217.498 220.302 216.682C220.302 215.866 220.605 215.155 221.21 214.549C221.815 213.943 222.525 213.64 223.34 213.64C224.155 213.64 224.865 213.943 225.47 214.549C226.075 215.155 226.378 215.866 226.378 216.682C226.378 217.498 226.075 218.209 225.47 218.815C224.865 219.421 224.155 219.724 223.34 219.724ZM207.543 219.724C206.728 219.724 206.018 219.421 205.413 218.815C204.808 218.209 204.505 217.498 204.505 216.682C204.505 215.866 204.808 215.155 205.413 214.549C206.018 213.943 206.728 213.64 207.543 213.64C208.358 213.64 209.068 213.943 209.673 214.549C210.278 215.155 210.581 215.866 210.581 216.682C210.581 217.498 210.278 218.209 209.673 218.815C209.068 219.421 208.358 219.724 207.543 219.724ZM191.746 219.724C190.931 219.724 190.221 219.421 189.616 218.815C189.011 218.209 188.708 217.498 188.708 216.682C188.708 215.866 189.011 215.155 189.616 214.549C190.221 213.943 190.931 213.64 191.746 213.64C192.561 213.64 193.271 213.943 193.876 214.549C194.481 215.155 194.784 215.866 194.784 216.682C194.784 217.498 194.481 218.209 193.876 218.815C193.271 219.421 192.561 219.724 191.746 219.724ZM243.086 256.532V195.388C243.086 193.568 242.477 192.048 241.259 190.829C240.042 189.61 238.524 189 236.706 189H178.379C176.562 189 175.044 189.61 173.826 190.829C172.609 192.048 172 193.568 172 195.388V237.976C172 239.796 172.609 241.315 173.826 242.535C175.044 243.754 176.562 244.364 178.379 244.364H230.934L243.086 256.532Z" fill="#44F1B0"/>
<path d="M360.91 331.567C354.96 369.029 337.601 423.197 308.847 423.197C280.094 423.197 262.735 369.029 256.785 331.567C293.08 334.243 280.987 334.245 309.74 334.245C338.493 334.245 339.787 331.567 360.91 331.567Z" fill="#44F1B0"/>
<path fill-rule="evenodd" clip-rule="evenodd" d="M360.91 331.567C360.5 331.567 360.099 331.568 359.704 331.57C350.697 331.615 345.386 332.163 339.686 332.752C332.744 333.469 325.223 334.245 309.74 334.245C289.512 334.245 289.5 334.244 278.634 333.312C274.23 332.934 268.043 332.403 258.005 331.658C257.604 331.628 257.198 331.598 256.785 331.567C256.849 331.968 256.914 332.371 256.98 332.775C263.108 370.181 280.402 423.197 308.847 423.197C337.297 423.197 354.592 370.165 360.718 332.757C360.783 332.359 360.847 331.962 360.91 331.567ZM359.511 332.761C350.683 332.813 345.455 333.353 339.807 333.936C339.311 333.987 338.812 334.038 338.307 334.09C331.717 334.763 324.164 335.435 309.74 335.435C289.461 335.435 289.416 335.431 278.522 334.497C274.157 334.122 268.05 333.598 258.201 332.865C261.233 351.243 266.954 373.308 275.339 390.919C279.646 399.964 284.626 407.77 290.253 413.299C295.872 418.82 302.065 422.007 308.847 422.007C315.63 422.007 321.823 418.82 327.442 413.299C333.068 407.77 338.048 399.964 342.355 390.919C350.756 373.275 356.484 351.16 359.511 332.761Z" fill="#2D415A"/>
<path d="M360.91 331.863C360.91 339.913 337.601 346.44 308.847 346.44C280.094 346.44 256.785 339.913 256.785 331.863C256.785 323.812 280.094 317.285 308.847 317.285C337.601 317.285 360.91 323.812 360.91 331.863Z" fill="#2D415A"/>
<path fill-rule="evenodd" clip-rule="evenodd" d="M356.161 336.545C358.696 334.866 359.72 333.26 359.72 331.863C359.72 330.465 358.696 328.859 356.161 327.181C353.673 325.533 349.993 324.004 345.34 322.701C336.05 320.099 323.147 318.475 308.847 318.475C294.547 318.475 281.645 320.099 272.355 322.701C267.701 324.004 264.022 325.533 261.533 327.181C258.998 328.859 257.975 330.465 257.975 331.863C257.975 333.26 258.998 334.866 261.533 336.545C264.022 338.192 267.701 339.722 272.355 341.024C281.645 343.626 294.547 345.25 308.847 345.25C323.147 345.25 336.05 343.626 345.34 341.024C349.993 339.722 353.673 338.192 356.161 336.545ZM308.847 346.44C337.601 346.44 360.91 339.913 360.91 331.863C360.91 323.812 337.601 317.285 308.847 317.285C280.094 317.285 256.785 323.812 256.785 331.863C256.785 339.913 280.094 346.44 308.847 346.44Z" fill="#2D415A"/>
<path fill-rule="evenodd" clip-rule="evenodd" d="M307.949 231.906V213.164H309.139V231.906H307.949Z" fill="#2D415A"/>
<path d="M348.797 271.28C348.797 293.405 330.861 311.341 308.736 311.341C286.611 311.341 268.675 293.405 268.675 271.28C268.675 249.155 286.611 231.219 308.736 231.219C330.861 231.219 348.797 249.155 348.797 271.28Z" fill="#44F1B0"/>
<path fill-rule="evenodd" clip-rule="evenodd" d="M308.736 310.151C330.204 310.151 347.607 292.748 347.607 271.28C347.607 249.812 330.204 232.409 308.736 232.409C287.268 232.409 269.865 249.812 269.865 271.28C269.865 292.748 287.268 310.151 308.736 310.151ZM308.736 311.341C330.861 311.341 348.797 293.405 348.797 271.28C348.797 249.155 330.861 231.219 308.736 231.219C286.611 231.219 268.675 249.155 268.675 271.28C268.675 293.405 286.611 311.341 308.736 311.341Z" fill="#2D415A"/>
<path d="M341.423 269.436C341.423 279.248 326.826 289.047 308.821 289.047C290.815 289.047 276.219 279.248 276.219 269.436C276.219 259.623 290.815 253.512 308.821 253.512C326.826 253.512 341.423 259.623 341.423 269.436Z" fill="#2D415A"/>
<path fill-rule="evenodd" clip-rule="evenodd" d="M331.245 281.911C336.992 278.33 340.233 273.743 340.233 269.436C340.233 265.217 337.104 261.549 331.371 258.872C325.675 256.213 317.71 254.702 308.821 254.702C299.932 254.702 291.967 256.213 286.271 258.872C280.537 261.549 277.409 265.217 277.409 269.436C277.409 273.743 280.649 278.33 286.397 281.911C292.094 285.461 300.023 287.857 308.821 287.857C317.619 287.857 325.548 285.461 331.245 281.911ZM308.821 289.047C326.826 289.047 341.423 279.248 341.423 269.436C341.423 259.623 326.826 253.512 308.821 253.512C290.815 253.512 276.219 259.623 276.219 269.436C276.219 279.248 290.815 289.047 308.821 289.047Z" fill="#2D415A"/>
<path d="M303.778 271.475C303.778 275.089 301.381 278.02 298.423 278.02C295.466 278.02 293.068 275.089 293.068 271.475C293.068 267.86 295.466 264.93 298.423 264.93C301.381 264.93 303.778 267.86 303.778 271.475Z" fill="white"/>
<path fill-rule="evenodd" clip-rule="evenodd" d="M298.423 276.83C300.511 276.83 302.588 274.667 302.588 271.475C302.588 268.283 300.511 266.12 298.423 266.12C296.335 266.12 294.258 268.283 294.258 271.475C294.258 274.667 296.335 276.83 298.423 276.83ZM298.423 278.02C301.381 278.02 303.778 275.089 303.778 271.475C303.778 267.86 301.381 264.93 298.423 264.93C295.466 264.93 293.068 267.86 293.068 271.475C293.068 275.089 295.466 278.02 298.423 278.02Z" fill="#2D415A"/>
<path d="M324.604 271.475C324.604 275.089 322.207 278.02 319.25 278.02C316.292 278.02 313.895 275.089 313.895 271.475C313.895 267.86 316.292 264.93 319.25 264.93C322.207 264.93 324.604 267.86 324.604 271.475Z" fill="white"/>
<path fill-rule="evenodd" clip-rule="evenodd" d="M319.25 276.83C321.338 276.83 323.414 274.667 323.414 271.475C323.414 268.283 321.338 266.12 319.25 266.12C317.161 266.12 315.085 268.283 315.085 271.475C315.085 274.667 317.161 276.83 319.25 276.83ZM319.25 278.02C322.207 278.02 324.604 275.089 324.604 271.475C324.604 267.86 322.207 264.93 319.25 264.93C316.292 264.93 313.895 267.86 313.895 271.475C313.895 275.089 316.292 278.02 319.25 278.02Z" fill="#2D415A"/>
<path d="M314.492 214.652C314.492 217.774 311.962 220.305 308.84 220.305C305.718 220.305 303.188 217.774 303.188 214.652C303.188 211.531 305.718 209 308.84 209C311.962 209 314.492 211.531 314.492 214.652Z" fill="#44F1B0"/>
<path fill-rule="evenodd" clip-rule="evenodd" d="M308.84 219.115C311.305 219.115 313.302 217.117 313.302 214.652C313.302 212.188 311.305 210.19 308.84 210.19C306.375 210.19 304.377 212.188 304.377 214.652C304.377 217.117 306.375 219.115 308.84 219.115ZM308.84 220.305C311.962 220.305 314.492 217.774 314.492 214.652C314.492 211.531 311.962 209 308.84 209C305.718 209 303.188 211.531 303.188 214.652C303.188 217.774 305.718 220.305 308.84 220.305Z" fill="#2D415A"/>
<path d="M250.673 371.819C246.641 383.807 239.914 392.795 235.648 391.895C231.382 390.995 231.192 380.547 235.224 368.56C239.256 356.572 240.841 347.892 250.249 348.483C259.657 349.075 254.705 359.831 250.673 371.819Z" fill="#44F1B0"/>
<path fill-rule="evenodd" clip-rule="evenodd" d="M242.271 386.09C244.888 382.593 247.523 377.477 249.508 371.573C249.967 370.209 250.428 368.889 250.876 367.604C251.433 366.009 251.97 364.468 252.463 362.962C253.343 360.272 254.017 357.87 254.286 355.849C254.557 353.807 254.389 352.329 253.779 351.349C253.21 350.435 252.136 349.767 250.046 349.635C247.897 349.5 246.322 349.898 245.078 350.642C243.817 351.397 242.755 352.591 241.783 354.275C240.807 355.964 239.968 358.064 239.111 360.538C238.637 361.906 238.176 363.332 237.688 364.842C237.281 366.099 236.856 367.415 236.389 368.805C234.403 374.708 233.475 380.185 233.549 384.25C233.586 386.288 233.874 387.906 234.357 389.033C234.845 390.17 235.454 390.646 236.027 390.767C236.601 390.888 237.428 390.715 238.565 389.921C239.693 389.134 240.959 387.844 242.271 386.09ZM235.648 391.895C239.914 392.795 246.641 383.807 250.673 371.819C251.12 370.489 251.579 369.173 252.028 367.885C255.627 357.569 258.613 349.009 250.249 348.483C241.903 347.959 239.714 354.729 236.511 364.633C236.104 365.894 235.68 367.206 235.224 368.56C231.192 380.547 231.382 390.995 235.648 391.895Z" fill="#2D415A"/>
<path d="M365.652 368.072C369.858 380 376.715 388.889 380.968 387.927C385.22 386.965 385.258 376.516 381.052 364.588C376.846 352.66 375.135 344.005 365.736 344.733C356.338 345.461 361.446 356.144 365.652 368.072Z" fill="#44F1B0"/>
<path fill-rule="evenodd" clip-rule="evenodd" d="M374.261 382.219C371.593 378.761 368.884 373.683 366.813 367.81C366.334 366.451 365.854 365.138 365.387 363.86C364.808 362.274 364.248 360.741 363.733 359.243C362.814 356.565 362.105 354.173 361.807 352.156C361.506 350.119 361.653 348.638 362.249 347.65C362.804 346.727 363.868 346.043 365.956 345.882C368.102 345.715 369.683 346.09 370.938 346.816C372.21 347.552 373.289 348.731 374.286 350.4C375.286 352.075 376.156 354.162 377.049 356.624C377.543 357.985 378.024 359.404 378.535 360.907C378.959 362.158 379.403 363.467 379.891 364.851C381.962 370.724 382.97 376.187 382.956 380.252C382.948 382.291 382.684 383.913 382.217 385.047C381.746 386.191 381.144 386.676 380.572 386.805C380 386.934 379.171 386.773 378.022 385.996C376.883 385.225 375.599 383.954 374.261 382.219ZM380.968 387.927C376.715 388.889 369.858 380 365.652 368.072C365.186 366.748 364.708 365.44 364.24 364.158C360.491 353.895 357.381 345.38 365.736 344.733C374.074 344.087 376.361 350.825 379.708 360.681C380.134 361.936 380.577 363.241 381.052 364.588C385.258 376.516 385.22 386.965 380.968 387.927Z" fill="#2D415A"/>
<path d="M336.887 449.892C336.887 454.866 324.287 458.897 308.745 458.897C293.203 458.897 280.604 454.866 280.604 449.892C280.604 444.919 293.203 440.887 308.745 440.887C324.287 440.887 336.887 444.919 336.887 449.892Z" fill="#2D415A" fill-opacity="0.5"/>
<defs>
<linearGradient id="paint0_linear_1492_8429" x1="220.209" y1="245.581" x2="417.945" y2="359.745" gradientUnits="userSpaceOnUse">
<stop offset="0.023" stop-color="#2992EE" stop-opacity="0"/>
<stop offset="1" stop-color="#2992EE" stop-opacity="0.83"/>
</linearGradient>
</defs>
</svg>
